<svg xmlns="http://www.w3.org/2000/svg" width="375" height="42" viewBox="0 0 375 42">
  <g id="Grupo_27" data-name="Grupo 27" transform="translate(-21 -15)">
    <text id="GREENXPERIENCE" transform="translate(21 15)" fill="#e2eac4" font-size="34" font-family="Montserrat-Bold, Montserrat" font-weight="700"><tspan x="0" y="33">GREEN</tspan><tspan y="33" fill="#2d3615">XPERIENCE</tspan></text>
    <g id="Grupo_3" data-name="Grupo 3" transform="translate(43.418 -136.186)">
      <path id="Trazado_4" data-name="Trazado 4" d="M400.368,161.144a26.566,26.566,0,0,0-4.856,5.6,42.02,42.02,0,0,0-3.558,6.634,38.131,38.131,0,0,0-3.427-9.5c-.239-.439.087-.6.288-.829a35.722,35.722,0,0,1,10.126-7.861,44.447,44.447,0,0,1,6.668-2.922c.587-.2.725-.023.861.469a42.192,42.192,0,0,1,1.613,14.245c-.388,5.612-2.1,10.707-6.31,14.693a21.847,21.847,0,0,1-8.649,4.831c-.74.234-.724-.137-.711-.644a42.507,42.507,0,0,1,2.03-11.669,59.216,59.216,0,0,1,5.644-12.526C400.188,161.5,400.275,161.319,400.368,161.144Z" transform="translate(-55.588)" fill="#e2eac4"/>
      <path id="Trazado_5" data-name="Trazado 5" d="M330.594,216.192c-3.611-1.961-6.591-4.221-8.426-7.723a14.91,14.91,0,0,1-1.1-10.6,28.848,28.848,0,0,1,4.372-9.617c.379-.567.618-.677,1.179-.12,4.142,4.113,7.25,8.811,8.29,14.654a20.9,20.9,0,0,1-1.094,11.428c-.282.725-.5.839-1.033.189a20.892,20.892,0,0,1-3.555-7.32,46.433,46.433,0,0,1-1.664-7.911c-.018-.146-.011-.3-.164-.393-.74,1.672-.685,4.765.186,8.8A41.864,41.864,0,0,0,330.594,216.192Z" transform="translate(0 -29.145)" fill="#e2eac4"/>
    </g>
  </g>
</svg>
