<svg id="instagram-circle" xmlns="http://www.w3.org/2000/svg" width="40.542" height="40.542" viewBox="0 0 40.542 40.542">
  <path id="Trazado_9" data-name="Trazado 9" d="M20.271,0A20.271,20.271,0,1,1,0,20.271,20.271,20.271,0,0,1,20.271,0Z" transform="translate(0 0)" fill="#e2eac4"/>
  <path id="Trazado_8" data-name="Trazado 8" d="M791.949,726.379H779.787a3.785,3.785,0,0,0-3.8,3.8v12.163a3.785,3.785,0,0,0,3.8,3.8h12.163a3.785,3.785,0,0,0,3.8-3.8V730.18A3.785,3.785,0,0,0,791.949,726.379Zm1.1,2.28h.422v3.379h-3.378V728.66h2.956Zm-9.967,5.575a3.423,3.423,0,0,1,5.575,0,3.437,3.437,0,0,1,.676,2.027,3.463,3.463,0,1,1-6.926,0A3.437,3.437,0,0,1,783.081,734.234Zm10.727,8.108a1.875,1.875,0,0,1-1.858,1.858H779.787a1.875,1.875,0,0,1-1.858-1.858v-8.108h2.956a5.406,5.406,0,1,0,9.967,0h2.956Z" transform="translate(-765.597 -715.99)" fill="#5f6d3a"/>
</svg>
