<svg xmlns="http://www.w3.org/2000/svg" width="39.349" height="47.252" viewBox="0 0 39.349 47.252">
  <g id="_3418652" data-name="3418652" transform="translate(-0.012 1279.792)">
    <path id="Trazado_16" data-name="Trazado 16" d="M23.254-1279.711c-.3.107-.391.177-.812.62a15.494,15.494,0,0,0-3.836,8.4,2.228,2.228,0,0,1-.114.554c-.018,0-.085-.085-.148-.2a14.856,14.856,0,0,0-5.261-5.752,15.245,15.245,0,0,0-2.042-.99,13.92,13.92,0,0,0-5.439-.842,10.274,10.274,0,0,0-3.253.676,2.063,2.063,0,0,0-.4.177,7.063,7.063,0,0,0,.938,1.182,36.643,36.643,0,0,0,2.644,2.655,11.4,11.4,0,0,0,4.157,2.478c.484.133.587.17.587.214a3.2,3.2,0,0,1-.58.111,10.7,10.7,0,0,0-7.934,4.777,12.017,12.017,0,0,0-1.639,5.235c-.022.255-.055.624-.078.823a14.014,14.014,0,0,0,0,1.971c.018.3.052.853.074,1.229a40.089,40.089,0,0,0,2.5,11.741c2.278,6.011,5.874,10.678,9.112,11.815a5.846,5.846,0,0,0,1.506.3c.159,0,.443-.015.628-.037l.727-.074a8.846,8.846,0,0,0,2.6-.7,5.448,5.448,0,0,1,2.492-.517,5.448,5.448,0,0,1,2.492.517,8.846,8.846,0,0,0,2.6.7l.727.074c.185.022.469.037.628.037a5.846,5.846,0,0,0,1.506-.3c2.271-.794,4.781-3.371,6.893-7.07a38.7,38.7,0,0,0,4.715-16.43c.022-.347.055-.953.081-1.348a17.732,17.732,0,0,0-.358-4.541,10.047,10.047,0,0,0-7.761-7.9,14.169,14.169,0,0,0-6.483-.129c-.2.052-.69.2-1.1.336a12.333,12.333,0,0,1-1.865.495c-.462.081-.7.092-.727.041a3.719,3.719,0,0,1,.052-.62,13.045,13.045,0,0,1,3.212-7.34c.491-.524.572-.69.572-1.145a1.047,1.047,0,0,0-.314-.845,1.275,1.275,0,0,0-.613-.391A.868.868,0,0,0,23.254-1279.711Zm-5.339,10.176c.513.037.617.07.517.166-.052.052-.1.052-.443,0a2.136,2.136,0,0,1-.746-.166C17.195-1269.58,17.25-1269.58,17.915-1269.535Z" transform="translate(0 0)" fill="#845c32"/>
  </g>
</svg>
