<svg xmlns="http://www.w3.org/2000/svg" width="49.333" height="50.51" viewBox="0 0 49.333 50.51">
  <g id="_66897" data-name="66897" transform="translate(187.586 -81)">
    <g id="Grupo_25" data-name="Grupo 25" transform="translate(-187.586 81)">
      <g id="Grupo_19" data-name="Grupo 19" transform="translate(27.038 7.231)">
        <path id="Trazado_17" data-name="Trazado 17" d="M207.383,69.872c.551-.34,1.12-.671,1.689-1s1.144-.654,1.714-.962q.425-.235.848-.457c.281-.148.558-.3.833-.436,1.1-.566,2.142-1.065,3.048-1.47s1.675-.72,2.221-.927c.271-.106.491-.179.637-.233l.228-.078-.181.158c-.12.1-.293.253-.521.435-.453.368-1.108.879-1.913,1.46s-1.758,1.235-2.8,1.9c-.259.17-.525.336-.795.5s-.542.339-.82.506c-.552.34-1.122.671-1.69,1s-1.144.653-1.715.961c-.062.035-.124.066-.187.1,3.058.537,11.343,1.668,15.73-.865,9.957-5.749,4.5-6.682,2.322-10.459s-.263-8.968-10.219-3.219c-4.386,2.533-7.549,10.273-8.614,13.19C207.262,69.947,207.321,69.909,207.383,69.872Z" transform="translate(-207.202 -54.231)" fill="#f8c3b8"/>
      </g>
      <g id="Grupo_20" data-name="Grupo 20" transform="translate(27.038 25.452)">
        <path id="Trazado_18" data-name="Trazado 18" d="M208.168,191.713c.571.308,1.142.635,1.715.961s1.138.663,1.69,1q.416.251.82.506c.269.169.536.334.794.5,1.04.669,1.993,1.322,2.8,1.9s1.461,1.091,1.913,1.46c.227.182.4.336.521.435l.181.159-.228-.078c-.147-.054-.366-.127-.637-.233-.545-.208-1.315-.52-2.221-.927s-1.949-.9-3.047-1.47c-.276-.139-.553-.288-.834-.436s-.565-.3-.848-.457c-.57-.308-1.142-.636-1.714-.962s-1.137-.665-1.689-1c-.062-.037-.12-.075-.181-.112,1.065,2.917,4.227,10.657,8.614,13.19,9.957,5.748,8.038.558,10.219-3.219s7.635-4.711-2.322-10.459c-4.387-2.533-12.672-1.4-15.73-.865C208.044,191.647,208.106,191.678,208.168,191.713Z" transform="translate(-207.2 -190.892)" fill="#f8c3b8"/>
      </g>
      <g id="Grupo_21" data-name="Grupo 21" transform="translate(16.769 28.444)">
        <path id="Trazado_19" data-name="Trazado 19" d="M138.869,213.546c.018.648.021,1.307.025,1.965s-.006,1.317-.024,1.965c-.005.324-.015.646-.028.963s-.022.631-.039.94c-.06,1.234-.148,2.387-.25,3.374s-.215,1.811-.308,2.387c-.044.287-.091.514-.117.669s-.047.237-.047.237-.016-.083-.047-.237-.072-.381-.116-.669c-.093-.576-.207-1.4-.308-2.387s-.19-2.14-.25-3.374c-.017-.309-.028-.623-.039-.94s-.023-.64-.028-.963c-.019-.648-.02-1.307-.024-1.965s.007-1.317.025-1.965c0-.071,0-.141.007-.212-1.994,2.381-7.116,8.989-7.116,14.055,0,11.5,3.536,7.241,7.9,7.241s7.9,4.256,7.9-7.241c0-5.066-5.122-11.675-7.116-14.055C138.864,213.405,138.867,213.475,138.869,213.546Z" transform="translate(-130.183 -213.334)" fill="#f8c3b8"/>
      </g>
      <g id="Grupo_22" data-name="Grupo 22" transform="translate(0 25.453)">
        <path id="Trazado_20" data-name="Trazado 20" d="M26.529,193.082c-.552.339-1.121.671-1.689,1s-1.144.654-1.714.962q-.425.235-.848.457c-.281.148-.558.3-.833.436-1.1.566-2.142,1.065-3.048,1.47s-1.676.72-2.221.927c-.271.106-.491.179-.637.233l-.228.078.181-.159c.12-.1.294-.253.521-.435.453-.369,1.109-.879,1.913-1.46s1.758-1.236,2.8-1.9c.259-.169.525-.335.795-.5s.542-.339.82-.506c.553-.34,1.122-.67,1.69-1s1.143-.653,1.714-.961c.062-.035.125-.066.187-.1-3.059-.536-11.343-1.668-15.73.866-9.957,5.749-4.5,6.682-2.322,10.459s.262,8.967,10.219,3.219c4.387-2.533,7.55-10.273,8.614-13.19C26.649,193.008,26.59,193.046,26.529,193.082Z" transform="translate(-4.414 -190.897)" fill="#f8c3b8"/>
      </g>
      <g id="Grupo_23" data-name="Grupo 23" transform="translate(0 7.231)">
        <path id="Trazado_21" data-name="Trazado 21" d="M25.743,71.241c-.571-.308-1.142-.635-1.714-.961s-1.138-.663-1.69-1q-.417-.251-.82-.506c-.269-.169-.536-.335-.795-.5-1.04-.668-1.993-1.322-2.8-1.9s-1.461-1.092-1.913-1.46c-.227-.183-.4-.335-.521-.435l-.181-.159.228.078c.147.054.366.127.637.233.546.208,1.315.521,2.221.927s1.949.9,3.047,1.47c.276.139.553.288.834.436s.565.3.848.457c.57.308,1.142.636,1.714.962s1.137.665,1.689,1c.062.037.12.075.181.112C25.646,67.071,22.484,59.331,18.1,56.8,8.14,51.05,10.058,56.24,7.877,60.017S.243,64.728,10.2,70.476c4.387,2.533,12.672,1.4,15.73.866C25.867,71.307,25.805,71.276,25.743,71.241Z" transform="translate(-4.416 -54.235)" fill="#f8c3b8"/>
      </g>
      <g id="Grupo_24" data-name="Grupo 24" transform="translate(16.77)">
        <path id="Trazado_22" data-name="Trazado 22" d="M137.3,21.854c-.018-.648-.02-1.306-.025-1.965s.006-1.317.024-1.965q.008-.486.029-.963c.011-.317.022-.631.039-.94.06-1.234.148-2.387.25-3.374s.216-1.811.308-2.387c.044-.288.09-.514.117-.669s.047-.237.047-.237.016.082.047.237.072.381.117.669c.092.576.207,1.4.308,2.387s.19,2.14.25,3.374c.017.308.028.623.039.94s.023.639.029.963c.019.648.02,1.307.024,1.965s-.008,1.317-.025,1.965c0,.071,0,.141-.007.212,1.994-2.381,7.115-8.989,7.115-14.055,0-11.5-3.536-7.241-7.9-7.241s-7.9-4.256-7.9,7.241c0,5.066,5.122,11.675,7.116,14.055C137.306,21.995,137.3,21.925,137.3,21.854Z" transform="translate(-130.193 0)" fill="#f8c3b8"/>
      </g>
    </g>
  </g>
</svg>
