<?xml version="1.0" encoding="utf-8"?>
<!-- Generator: Adobe Illustrator 25.0.0, SVG Export Plug-In . SVG Version: 6.00 Build 0)  -->
<svg version="1.1" id="Capa_1" xmlns="http://www.w3.org/2000/svg" xmlns:xlink="http://www.w3.org/1999/xlink" x="0px" y="0px"
	 viewBox="0 0 41 41" style="enable-background:new 0 0 41 41;" xml:space="preserve">
<style type="text/css">
	.st0{fill:none;}
	.st1{fill:#E2EAC4;}
</style>
<rect class="st0" width="41" height="41"/>
<path class="st1" d="M40.7,20.4C40.7,9.1,31.5,0,20.3,0C9,0-0.1,9.1-0.1,20.4c0,10,7.3,18.6,17.2,20.2V26.3h-5.2v0h0v-5.9h5.2v-4.5
	c0-4.5,2.3-7.2,6-7.8C23.7,8,24.2,8,24.8,8c1.5,0,3.1,0.2,4.6,0.4v5h0v0h-2.6c-0.3,0-0.6,0-0.9,0.1c-1.8,0.3-2.5,1.7-2.5,3.1v3.8
	h5.7l-0.9,5.9h0l0,0h-4.8v14.3C33.4,39,40.7,30.4,40.7,20.4L40.7,20.4z"/>
</svg>
