<?xml version="1.0" encoding="utf-8"?>
<!-- Generator: Adobe Illustrator 25.0.0, SVG Export Plug-In . SVG Version: 6.00 Build 0)  -->
<svg version="1.1" id="instagram-circle" xmlns="http://www.w3.org/2000/svg" xmlns:xlink="http://www.w3.org/1999/xlink" x="0px"
	 y="0px" viewBox="0 0 40.5 40.5" style="enable-background:new 0 0 40.5 40.5;" xml:space="preserve">
<style type="text/css">
	.st0{fill:#E2EAC4;}
</style>
<g>
	<polygon class="st0" points="27.9,12.7 27.5,12.7 27.5,12.7 24.5,12.7 24.5,16 27.9,16 	"/>
	<path class="st0" d="M20.3,0C9.1,0,0,9.1,0,20.3s9.1,20.3,20.3,20.3s20.3-9.1,20.3-20.3S31.5,0,20.3,0z M30.2,26.4
		C30.2,26.4,30.2,26.4,30.2,26.4c0,2.1-1.7,3.8-3.8,3.8H14.2c0,0,0,0,0,0c-2.1,0-3.8-1.7-3.8-3.8V14.2c0,0,0,0,0,0
		c0-2.1,1.7-3.8,3.8-3.8h12.2c0,0,0,0,0,0c2.1,0,3.8,1.7,3.8,3.8V26.4z"/>
	<path class="st0" d="M20.3,23.7c1.9,0,3.5-1.6,3.5-3.5c0-0.7-0.2-1.4-0.7-2c-0.2-0.3-0.5-0.6-0.8-0.8c-1.5-1.1-3.7-0.7-4.8,0.8l0,0
		c-0.4,0.6-0.7,1.3-0.7,2C16.8,22.2,18.4,23.7,20.3,23.7z"/>
	<path class="st0" d="M25.3,18.2c0.6,1.3,0.6,2.9,0,4.2c-1.2,2.8-4.3,4-7.1,2.9c-2.8-1.2-4-4.3-2.9-7.1h-3v8.1c0,1,0.8,1.8,1.9,1.9
		h12.2c1,0,1.8-0.8,1.9-1.9l0-8.1H25.3z"/>
</g>
</svg>
